<?xml version="1.0" standalone="no"?><!DOCTYPE svg PUBLIC "-//W3C//DTD SVG 1.1//EN" "http://www.w3.org/Graphics/SVG/1.1/DTD/svg11.dtd"><svg width="200" height="200" viewBox="0 0 200 200" version="1.1" xmlns="http://www.w3.org/2000/svg" xmlns:xlink="http://www.w3.org/1999/xlink"><defs><style type="text/css"><![CDATA[

]]></style></defs><g class="transform-group"><g transform="scale(0.1953125, 0.1953125)"><path d="M927.214275 768.761094c-20.672647-20.672647-49.623264-32.14062-76.355135-32.814857l0-7.113648c0-162.755513-133.620743-295.903993-296.242597-295.903993l-41.173022 0c-7.042363-26.731871-19.024182-52.142-34.899943-74.463112 41.464102-15.207465 79.102577-39.14437 110.788755-70.830548 57.824008-57.824008 89.254748-134.517746 89.254748-216.29054l0-27.513036-23.562659 0c-47.128289 0-93.312052 12.13627-135.034562 32.800006-0.99502-18.029162-3.579101-35.511806-7.737392-53.14296L506.653626 0l-23.734931 5.71171c-65.602982 15.445081-122.910174 51.069755-165.728691 102.899883C280.050523 153.56569 256.178962 209.055114 249.062344 266.602892 143.759563 286.832978 63.754043 379.660886 63.754043 490.761513l0 227.307042L256.627464 718.068555c-30.599082 32.672287-47.894603 77.608563-47.894603 122.72008 0 100.767274 81.725271 183.211335 182.174732 183.211335l459.948577 0 0-63.410969c26.731871-0.629684 56.038913-12.222406 76.684828-32.868321C971.366416 883.895263 971.036723 812.586511 927.214275 768.761094zM488.226456 157.103207c39.913654-34.00591 89.269599-54.883502 141.14725-60.084336-5.809727 59.044763-31.617863 113.794606-74.124509 156.301251-31.439651 31.442621-70.150371 54.028082-112.553059 65.864361-11.604602-10.172962-24.242837-19.187543-37.739462-26.871471C417.669167 239.936366 446.780175 192.416009 488.226456 157.103207zM354.801746 139.745312c30.501065-36.922655 69.761273-64.019861 114.614383-79.328313 1.502925 11.277879 2.260328 22.635955 2.260328 33.976208 0 4.410759-0.124749 8.824488-0.353455 13.214455-5.019651 3.775134-9.938316 7.695809-14.738172 11.785785-47.128289 40.154241-80.893613 94.021932-96.989169 153.241937-19.229126-5.937446-39.542378-9.359125-60.544718-9.968018C306.396268 217.85881 325.696679 174.977919 354.801746 139.745312zM111.277369 670.542258l0-179.783715c0-98.946536 81.356965-179.448081 180.303501-179.448081s179.875791 80.667877 179.875791 179.614413c0 98.946536-80.070865 179.614413-179.020371 179.614413L111.277369 670.539288zM390.910564 976.473673c-73.551259 0-133.389067-60.725901-133.389067-134.592001 0-17.972728 3.611773-34.99796 10.443251-51.040053 16.163871 77.115508 62.300111 141.078936 125.509106 185.632054L390.910564 976.473673zM310.2813 728.832588l0-10.541268c118.808317-9.204674 210.317452-107.251238 210.317452-227.045663 0-2.783085 0.008911-4.85332-0.092076-7.823528l34.109868 0c131.903963 0 239.894783 103.915694 245.86193 234.500885-33.316822-36.200894-81.054004-59.175452-134.015781-59.175452-100.449461 0-182.171762 81.600522-182.171762 182.049984 0 53.092466 22.766644 100.883112 59.124959 134.208845C413.917794 969.116468 310.2813 860.923675 310.2813 728.832588zM800.365606 976.473673l-133.899943 0c-73.548288 0-133.383127-61.043713-133.383127-134.592001 0-73.548288 60.093247-133.986079 133.641535-133.986079s133.644505 59.231886 133.644505 132.777204L800.368576 976.473673zM892.71531 893.218746c-11.42936 11.43233-27.00513 17.966788-41.85617 18.578651l0-127.074405c14.85104 0.641565 30.747592 7.098797 42.185863 18.537068C917.84921 828.061295 917.519516 868.417509 892.71531 893.218746zM374.627884 499.009781c0-53.85878-43.816507-97.672317-97.672317-97.672317-53.85878 0-97.675287 43.816507-97.675287 97.672317 0 53.85878 43.816507 97.675287 97.675287 97.675287C330.811377 596.685068 374.627884 552.868561 374.627884 499.009781zM276.955567 547.896433c-26.957607 0-48.886652-21.932015-48.886652-48.886652s21.932015-48.886652 48.886652-48.886652c26.954637 0 48.886652 21.929045 48.886652 48.886652S303.910204 547.896433 276.955567 547.896433z" fill="#272636"></path></g></g></svg>