<?xml version="1.0" standalone="no"?><!DOCTYPE svg PUBLIC "-//W3C//DTD SVG 1.1//EN" "http://www.w3.org/Graphics/SVG/1.1/DTD/svg11.dtd"><svg width="16" height="16" viewBox="0 0 16 16" version="1.1" xmlns="http://www.w3.org/2000/svg" xmlns:xlink="http://www.w3.org/1999/xlink"><defs><style type="text/css"><![CDATA[
@font-face { font-family: ifont; src: url("//at.alicdn.com/t/font_1442373896_4754455.eot?#iefix") format("embedded-opentype"), url("//at.alicdn.com/t/font_1442373896_4754455.woff") format("woff"), url("//at.alicdn.com/t/font_1442373896_4754455.ttf") format("truetype"), url("//at.alicdn.com/t/font_1442373896_4754455.svg#ifont") format("svg"); }

]]></style></defs><g class="transform-group"><g transform="scale(0.015625, 0.015625)"><path d="M96.415 410.717c7.544-0.001 15.089 2.848 20.89 8.558l389.726 383.685 392.82-383.764c11.764-11.493 30.617-11.273 42.11 0.49 11.493 11.764 11.273 30.618-0.491 42.11l-413.709 404.174c-11.601 11.335-30.141 11.3-41.701-0.081l-410.538-404.174c-11.719-11.536-11.867-30.392-0.328-42.111 5.828-5.92 13.524-8.886 21.222-8.887zM815.078 229.198c5.16 0 10.312 1.997 14.201 5.979 7.661 7.843 7.515 20.411-0.326 28.073l-308.129 301.029c-7.72 7.541-20.050 7.536-27.762-0.016l-306.212-299.837c-7.834-7.671-7.966-20.24-0.296-28.073 7.671-7.834 20.241-7.967 28.073-0.296l292.338 286.253 294.238-287.46c3.862-3.772 8.87-5.653 13.872-5.653z" fill="#ecf0f1"></path></g></g></svg>