<?xml version="1.0" standalone="no"?><!DOCTYPE svg PUBLIC "-//W3C//DTD SVG 1.1//EN" "http://www.w3.org/Graphics/SVG/1.1/DTD/svg11.dtd"><svg width="64" height="64" viewBox="0 0 64 64" version="1.1" xmlns="http://www.w3.org/2000/svg" xmlns:xlink="http://www.w3.org/1999/xlink"><defs><style type="text/css"><![CDATA[

]]></style></defs><g class="transform-group"><g transform="scale(0.0625, 0.0625)"><path d="M926.751724 328.930622c-0.692556 0-1.385112 0.029043-2.079902 0.044681-38.365372-82.391832-120.609757-134.934497-213.193333-134.934497L484.766908 194.040806c-13.739419 0-27.429688 1.175111-40.836234 3.458312-17.959543-17.003369-41.767833-26.580749-66.79815-26.580749-29.107461 0-55.962999 12.696117-74.284458 34.502697-19.81604-5.888961-40.78485-9.068016-62.48643-9.068016-23.569247 0-46.27615 3.746505-67.5756 10.647491C154.477982 184.463426 126.719888 170.916136 97.248276 170.916136 43.62433 170.916136 0 214.53153 0 268.142072c0 28.68746 12.367711 55.223527 33.629182 73.542752-8.382162 23.234139-12.964203 48.271158-12.964203 74.360415 0 121.139227 98.552963 219.69219 219.69219 219.69219 26.739366 0 52.372877-4.80768 76.09404-13.594205l0 139.210472c0 50.581168 41.149001 91.730168 91.730168 91.730168 16.621346 0 32.90535-4.568636 47.055834-13.013352 14.121442 8.444716 30.392041 13.013352 47.020089 13.013352 24.496378 0 47.516049-9.541635 64.812078-26.871175 17.271455-17.298263 26.784047-40.333572 26.784047-64.858993l0-91.462082 27.612881 0 0 91.462082c0 50.581168 41.149001 91.730168 91.730168 91.730168 16.864857 0 33.327585-4.678105 47.578602-13.326119 14.235378 8.650249 30.686936 13.326119 47.547325 13.326119 24.496378 0 47.516049-9.541635 64.812078-26.871175 17.271455-17.298263 26.784047-40.333572 26.784047-64.858993l0-194.679745c9.961637-14.246549 18.395183-28.738843 25.233615-43.278052 0.531704 0.008936 1.065643 0.031277 1.595113 0.031277 53.623946 0 97.248276-43.62433 97.248276-97.248276S980.37567 328.930622 926.751724 328.930622zM377.130291 206.660965c18.115926 0 35.217593 7.930884 46.935195 21.770835 9.380784 11.058557 14.545912 25.162126 14.545912 39.710271 0 12.479414-3.641504 24.266271-10.323554 34.21227-21.35977-35.17738-52.31926-63.902819-89.210158-82.537045C349.734113 211.399389 363.008849 206.660965 377.130291 206.660965zM35.744829 268.142072c0-33.901737 27.59054-61.481107 61.503447-61.481107 15.037403 0 29.384484 5.565023 40.449743 15.202723-36.783663 19.525613-67.39911 49.189353-88.07526 85.253652C40.746871 296.304529 35.744829 282.656707 35.744829 268.142072zM56.409809 416.043005c0-101.428187 82.519173-183.94736 183.94736-183.94736s183.94736 82.519173 183.94736 183.94736-82.519173 183.94736-183.94736 183.94736S56.409809 517.471193 56.409809 416.043005zM352.198272 761.353696l0-132.599913c18.124863 11.594729 37.833668 20.718597 58.465137 26.98958l0 105.610332c0 19.105611 5.880024 37.391326 16.558792 52.640963-6.067685 2.191605-12.51069 3.344376-19.03859 3.344376C377.313483 817.339035 352.198272 792.223824 352.198272 761.353696zM657.213369 761.353696l0-92.400384c17.103901-0.933834 41.948791-2.32118 59.515141-3.431504l0 95.831888c0 18.940291 5.806301 37.118771 16.344323 52.312558-6.300026 2.39267-13.02899 3.672781-19.874125 3.672781C682.326346 817.339035 657.213369 792.223824 657.213369 761.353696zM897.400751 497.782494c-7.1512 17.546243-17.182093 35.27121-29.81789 52.681176l-3.406929 4.695977 0 206.196282c0 14.988254-5.801833 29.053844-16.337621 39.605271-10.544725 10.562597-24.576804 16.380068-39.515909 16.380068-13.19431 0-25.977555-4.669168-36.003979-13.158565-12.613457-10.660895-19.847317-26.270216-19.847317-42.826774l0-135.300881-20.088594 2.513308c-5.880024 0.732769-57.799389 3.666079-91.129208 5.453321-1.604049 0.084894-3.194694 0.127341-4.800977 0.127341L558.11083 634.149018l0 127.206912c0 17.186561-7.627053 33.157797-21.270408 44.010821-9.425465 7.497478-21.187748 11.684091-33.229287 11.958879-13.694738 0.312767-26.498089-4.130762-36.948983-12.805585-12.872607-10.669832-20.253914-26.404259-20.253914-43.164116l0-133.388533-13.728249-3.272886c-23.53797-5.611938-45.936574-15.542299-65.868784-29.096291 56.362894-39.810804 93.242622-105.453949 93.242622-179.55298 0-27.749158-5.185234-54.307566-14.615167-78.772668 18.287948-18.127097 28.917567-43.061349 28.917567-69.128266 0-12.993245-2.611607-25.763086-7.555563-37.572284 5.958216-0.513832 11.954411-0.786386 17.966245-0.786386l226.71158 0c82.40747 0 155.161602 48.968182 185.357047 124.756157 9.503657 23.835099 14.322506 49.20946 14.322506 75.414888C911.158042 452.451348 906.526852 475.281124 897.400751 497.782494zM938.992094 486.455851c5.252256-18.774972 7.910778-37.690689 7.910778-56.501405 0-21.9719-2.91097-43.465713-8.645781-64.184309 28.430544 5.404171 49.995846 30.427786 49.995846 60.408762C988.255171 455.902958 967.060721 480.763487 938.992094 486.455851zM154.732664 321.16059c-35.831957 0-64.981866 29.149908-64.981866 64.981866s29.149908 64.9841 64.981866 64.9841 64.9841-29.152142 64.9841-64.9841S190.564622 321.16059 154.732664 321.16059zM154.732664 415.38396c-16.120918 0-29.237036-13.116118-29.237036-29.23927 0-16.120918 13.116118-29.237036 29.237036-29.237036 16.123152 0 29.23927 13.116118 29.23927 29.237036C183.971935 402.267842 170.855816 415.38396 154.732664 415.38396zM394.015254 386.14469c0-35.831957-29.149908-64.981866-64.981866-64.981866s-64.9841 29.149908-64.9841 64.981866 29.152142 64.9841 64.9841 64.9841S394.015254 421.976647 394.015254 386.14469zM329.031155 415.38396c-16.123152 0-29.23927-13.116118-29.23927-29.23927 0-16.120918 13.116118-29.237036 29.23927-29.237036 16.120918 0 29.237036 13.116118 29.237036 29.237036C358.270425 402.267842 345.154307 415.38396 329.031155 415.38396z" fill="#33475f"></path></g></g></svg>