<?xml version="1.0" standalone="no"?><!DOCTYPE svg PUBLIC "-//W3C//DTD SVG 1.1//EN" "http://www.w3.org/Graphics/SVG/1.1/DTD/svg11.dtd"><svg width="16.015625" height="16" viewBox="0 0 16.015625 16" version="1.1" xmlns="http://www.w3.org/2000/svg" xmlns:xlink="http://www.w3.org/1999/xlink"><defs><style type="text/css"><![CDATA[

]]></style></defs><g class="transform-group"><g transform="scale(0.015625, 0.015625)"><path d="M277.074176 486.085252c-14.850421 0-28.882782 5.708195-39.51757 16.074094-10.830758 10.557312-16.90127 24.699051-17.094961 39.822918-0.191413 15.121589 5.514503 29.413724 16.071815 40.244482 10.746446 11.026728 25.14568 17.099518 40.547552 17.099518 14.848142 0 28.882782-5.708195 39.515291-16.074094 10.830758-10.555033 16.90127-24.696772 17.094961-39.82064s-5.512225-29.416002-16.069537-40.246761C306.873004 492.158042 292.47149 486.085252 277.074176 486.085252zM291.145275 557.140313c-3.787233 3.691527-8.782189 5.724146-14.066541 5.724146-5.48488 0-10.612001-2.162506-14.440251-6.088741-3.75761-3.855595-5.790229-8.946256-5.721867-14.330873s2.230867-10.41831 6.086462-14.178199c3.784955-3.691527 8.782189-5.724146 14.06882-5.724146 5.482601 0 10.612001 2.162506 14.440251 6.088741 3.75761 3.855595 5.790229 8.943978 5.721867 14.328594S295.003149 553.380424 291.145275 557.140313zM1007.495228 351.608843c-41.577533-19.487617-88.375615-21.966865-131.764731-6.972885-19.138973 6.612847-36.694235 16.311081-52.123451 28.591105-1.519907-66.315322-40.825555-126.892827-101.047579-155.105665l-16.50933-7.733977-7.733977 16.511608c-17.037993 36.377493-21.087279 77.843369-11.400438 116.761636 6.993393 28.103459 20.909539 54.039855 40.091808 75.34817-26.127809 51.337293-88.197875 74.288565-141.825282 51.157274-23.368278-10.067387-41.978588-27.271726-53.80059-49.714844-1.47889-2.887139-6.977442-17.25675-8.444938-21.561253-24.473458-71.62702-78.360639-129.898459-147.84794-159.872748C239.060562 180.342493 80.641638 243.287588 21.969144 379.329478c-55.151871 127.874955-2.859794 275.508695 116.590732 341.500439 2.255933 1.24646 4.432111 2.634201 6.480681 4.195124l0 0c-9.235654 21.22856-14.248839 44.257308-14.590647 67.623308l-0.26661 18.232042c0 0 19.968427 0.280283 20.83662 0.280283 43.733203 0 84.870943-15.855337 117.149018-44.952318 34.142068 6.99795 68.858374 10.527688 103.581517 10.527688 47.019118 0 94.031399-6.410041 139.580742-19.141252 0.811224 0.868192 1.588268 1.756893 2.417722 2.611414 32.688245 33.617963 76.510318 52.494883 123.394991 53.153433l18.227485 0.255217 0.255217-18.227485c0.453465-32.328207-7.943619-62.742289-22.885189-88.995427 92.511493-53.565882 164.601093-132.587349 209.808628-230.066452 4.871904 0.412448 9.75976 0.622091 14.627107 0.622091 67.858016 0 130.30635-39.683917 159.086589-101.095433l7.736256-16.507051L1007.495228 351.608843zM724.286736 260.747144c38.763313 25.462422 62.933701 69.309561 62.933701 116.460845 0 12.856541-1.802468 25.478373-5.286631 37.724217l0 0c-9.060192-3.835087-17.329669-9.370098-24.188618-16.425017C722.625549 362.37124 709.666466 309.026394 724.286736 260.747144zM178.610666 739.296668c14.490383 5.813016 29.235983 10.985711 44.14793 15.477069-16.495657 10.00814-34.864423 16.418181-54.187972 18.838182C170.423223 761.76713 173.823074 750.232247 178.610666 739.296668zM501.639797 655.505838c60.901083 9.506822 108.635718 58.601854 116.431221 119.744481C557.1631 765.750333 509.430743 716.653023 501.639797 655.505838zM611.435385 676.579445c-31.630918-35.673369-77.55625-58.460573-128.873035-59.180649l-18.227485-0.255217-0.255217 18.227485c-0.453465 32.337322 7.802339 63.460086 23.691856 90.690795-72.458753 17.963153-148.406226 18.938446-221.206787 2.559003-22.876075-5.140793-45.540228-12.013414-67.614193-20.490254 0 0-22.361084-9.208309-22.436282-9.237933-55.885619-24.163552-97.463152-67.819278-120.245799-119.600921 0.198249 0.209642 0.387382 0.426121 0.58791 0.633484 12.204827 12.523848 29.126605 18.658163 46.868722 16.759989 9.914713-1.059605 19.437485-4.821772 27.419843-10.798856 27.914325-20.904981 30.329769-60.857787 6.799702-85.003109-12.248122-12.562586-29.238262-18.694623-47.044184-16.73948-10.017255 1.100622-19.626619 4.958496-27.6386 11.072303-12.257237 9.354147-19.920574 22.684662-21.934963 37.396081-9.365541-45.10955-5.475765-93.416145 14.114394-138.840158 50.712924-117.584254 187.623005-171.988704 305.202702-121.27806 60.055677 25.906773 106.632723 76.273331 127.783806 138.17705 0.856799 2.513429 7.583582 20.859407 10.673527 26.740784 15.543152 29.502594 40.989623 53.028103 71.642971 66.235567 18.872363 8.139589 38.524048 11.990627 57.879499 11.988348 50.690136-0.002279 99.28385-26.437715 126.136292-71.478903 0 0 24.138486 15.44061 51.198291 26.834212C763.150313 556.392892 694.492466 629.259536 611.435385 676.579445zM77.244066 540.145616c0.068362-5.384616 2.230867-10.41831 6.086462-14.17592 3.787233-3.691527 8.782189-5.724146 14.06882-5.724146 5.710473 0 11.031286 2.342525 14.900553 6.578666 6.537649 7.157461 7.013902 18.314076 1.034539 25.943232-3.91712 4.994955-9.7233 7.797781-15.928256 7.797781-5.48488 0-10.612001-2.162506-14.440251-6.088741C79.208323 550.618615 77.175704 545.530232 77.244066 540.145616zM857.177155 440.488056c-0.059247 0-0.116215 0-0.175461 0-10.101568-0.013672-20.073248-2.27872-29.377264-6.216349l-8.467725-3.584427c16.691627-23.890105 40.447288-41.907948 68.477828-51.590231 28.121689-9.716464 58.041288-10.172208 86.026254-1.565481C948.200643 416.303996 904.337553 440.488056 857.177155 440.488056z" fill="#eb4f38"></path></g></g></svg>