<?xml version="1.0" standalone="no"?><!DOCTYPE svg PUBLIC "-//W3C//DTD SVG 1.1//EN" "http://www.w3.org/Graphics/SVG/1.1/DTD/svg11.dtd"><svg width="16" height="16" viewBox="0 0 16 16" version="1.1" xmlns="http://www.w3.org/2000/svg" xmlns:xlink="http://www.w3.org/1999/xlink"><defs><style type="text/css"><![CDATA[

]]></style></defs><g class="transform-group"><g transform="scale(0.015625, 0.015625)"><path d="M966.506913 342.554045c0-28.593553-11.135777-55.474095-31.3522-75.690518-20.216423-20.218832-47.106602-31.354609-75.71702-31.354609-47.578825 0-88.727232 31.720823-102.339768 75.548369-12.183822-2.900795-24.721811-4.399379-37.474227-4.399379-39.194466 0-79.08522 14.005252-112.321491 39.432987-24.957922 19.09369-65.267893 41.854332-115.574044 41.854332l-22.649814 0c-1.019133-7.357997-2.416526-16.812084-4.218681-27.798485l42.892739-7.625429-6.748445-37.956087-42.99152 7.644704c-2.500852-12.67291-5.39201-26.213166-8.704795-40.191916l47.063235-9.16738-7.372453-37.838031-49.376161 9.617919c-0.091553-0.320437-0.178288-0.638464-0.269841-0.958901-3.093539-10.88521-6.295497-21.252421-9.603463-31.113679l37.652515-19.520136-17.742073-34.224084-33.554299 17.395134c-0.436083-1.035998-0.881803-2.035857-1.322705-3.0574 31.79792-49.915844 25.196443-116.453437-17.291535-159.201619l-13.590852-13.675178-70.247913 69.855197 0.322846-60.343287-38.548774-0.2072-0.20479 38.396988C251.352463 18.255254 214.851593 0 175.196951 0l-19.274387 0 0 125.126912c-5.112531 6.69544-9.526366 13.995614-13.111402 21.830653l-77.791426 169.723025c-11.945301 26.102339-9.564915 55.951136 6.367776 79.844149 15.296635 22.93893 40.912296 36.630973 68.522855 36.630973 14.788273 0 29.350073-4.009073 42.112126-11.598362l40.350929-24.006249c-22.591991 49.132822-41.982024 99.364284-41.982024 127.05676 0 54.878999 18.660016 107.65468 52.541979 148.598297 11.783878 14.241363 25.275949 26.849221 40.078679 37.654924L273.012056 1024l79.506847 0 36.139476 0 101.190532 0L489.848911 754.187492c56.514912-4.770411 132.819801-38.310254 200.207877-74.126883-0.159014 8.107289-0.236111 15.38337-0.236111 22.199275l0 321.737706 77.097548 0 38.548774 0 98.781234 0L904.248233 691.242163l62.25627 113.694791L966.504503 342.554045zM392.448205 129.988876c-12.364519-19.597233-25.704804-34.310818-39.989535-44.085342l29.793384-29.627142C396.230803 78.321472 399.750788 105.361028 392.448205 129.988876zM249.025081 77.321613c-9.44445 1.611821-19.043094 3.534441-28.277935 5.779907-9.266162 2.252694-18.057691 5.582344-26.275808 9.815482L194.471338 40.637636C216.685069 45.521284 236.18593 58.707374 249.025081 77.321613zM162.319251 388.427086c-6.801449 4.042803-14.549753 6.17985-22.406475 6.17985-14.694311 0-28.321303-7.27849-36.450275-19.46954-8.466275-12.697002-9.731156-28.552595-3.392292-42.406061l77.791426-169.723025c9.755249-21.317472 28.70679-36.789986 51.995068-42.449428 27.350355-6.649664 60.928747-10.622597 77.591455-10.622597 24.2785 0 48.055866 25.075978 69.204687 71.992245 20.719966 45.967004 4.009073 100.930328-39.888344 125.734055-1.320296 0.746882-2.667093 1.4769-4.037984 2.192462-31.860562 16.614522-65.566646 18.621467-65.903948 18.638332l0 0c-3.047762 0.334892-5.987106 1.320296-8.622879 2.886339L162.319251 388.427086zM352.521312 747.831763l0 167.749809-40.958073 0 0-182.087544C324.650548 739.522093 338.354637 744.350327 352.521312 747.831763zM311.563239 985.451226l0-31.320879 40.958073 0 0 31.320879L311.563239 985.451226zM391.070086 985.451226l0-31.320879 60.23246 0 0 31.320879L391.070086 985.451226zM476.682095 716.219359c-1.734695 0-3.442887-0.045777-5.071573-0.132511l-20.305567-1.089003 0 200.581319-60.23246 0 0-199.668194-16.021834-2.744191c-91.912324-15.732718-156.10567-93.273578-156.10567-188.561329 0-22.430568 23.481022-82.942506 61.531071-158.813722 14.930422-2.035857 42.001299-7.386909 68.85052-21.127138 21.878839-11.198419 45.899544-29.181422 61.552755-57.546092 15.515882 64.463188 22.013759 121.565969 22.088448 122.230935l1.912983 17.137339 56.852214 0c48.359437 0 96.422531-17.216846 138.994833-49.788151 26.552878-20.312795 58.124324-31.499167 88.898292-31.499167 14.246181 0 28.12374 2.385205 41.254416 7.090565 3.642859 1.30584 6.83518 2.768284 10.347937 4.743909 13.920926 7.83022 26.82031 17.893859 40.594269 31.670227 34.746901 34.744492 53.881549 82.89673 53.881549 135.590495L865.704277 915.581573l-60.23246 0 0-196.054247-11.67546-5.006522c-25.104889-10.771973-41.329105-35.766035-41.329105-63.675347l0-50.368792-28.962176 16.838586C613.804903 681.094198 526.1474 716.219359 476.682095 716.219359zM766.920634 744.058802l0 171.520361-38.548774 0 0-210.444986C737.546468 721.09096 750.720512 734.597487 766.920634 744.058802zM728.37186 985.451226l0-31.320879 38.548774 0 0 31.320879L728.37186 985.451226zM805.469408 985.451226l0-31.320879 60.23246 0 0 31.320879L805.469408 985.451226zM927.958138 654.276298l-23.707496-43.295092 0-86.681737c0-62.991106-23.14613-120.823905-65.171521-162.849297-15.364096-15.366505-30.060816-26.935956-45.964595-36.255122 7.779624-29.482584 34.857729-51.139768 66.323166-51.139768 18.315486 0 35.522695 7.124295 48.458218 20.062228 12.937932 12.935523 20.062228 30.137914 20.062228 48.434125L927.958138 654.276298zM293.719976 247.133782c8.589149-12.53558 11.783878-27.663564 8.993911-42.601214-2.789968-14.93765-11.22974-27.894857-23.765319-36.486415-9.51191-6.517152-20.621185-9.964858-32.123175-9.964858-18.792527 0-36.346675 9.246887-46.962044 24.736267-17.730027 25.875865-11.104456 61.352783 14.771408 79.08522 9.51191 6.517152 20.621185 9.964858 32.123175 9.964858l0.002409 0C265.552868 271.870048 283.107016 262.623161 293.719976 247.133782zM261.919646 225.344087c-3.421204 4.994476-9.090283 7.977187-15.159305 7.977187-3.691045 0-7.266444-1.113096-10.333481-3.214004-8.340991-5.717265-10.478039-17.156614-4.763183-25.497605 3.421204-4.994476 9.090283-7.977187 15.161715-7.977187 3.691045 0 7.264035 1.113096 10.33589 3.216413 4.040393 2.768284 6.760491 6.946007 7.661569 11.759785C265.71911 216.424865 264.690339 221.303694 261.919646 225.344087z" fill="#ea8010"></path></g></g></svg>