<?xml version="1.0" standalone="no"?><!DOCTYPE svg PUBLIC "-//W3C//DTD SVG 1.1//EN" "http://www.w3.org/Graphics/SVG/1.1/DTD/svg11.dtd"><svg width="16" height="16" viewBox="0 0 16 16" version="1.1" xmlns="http://www.w3.org/2000/svg" xmlns:xlink="http://www.w3.org/1999/xlink"><defs><style type="text/css"><![CDATA[

]]></style></defs><g class="transform-group"><g transform="scale(0.015625, 0.015625)"><path d="M300.621535 448.121999c-15.473405 0-30.01832 6.024393-40.959395 16.965468-22.583917 22.583917-22.581757 59.332715 0 81.914472 10.938916 10.941075 25.48599 16.967628 40.959395 16.967628 15.471246 0 30.01832-6.026552 40.957236-16.965468 22.581757-22.583917 22.583917-59.332715 0-81.918791C330.637696 454.146392 316.092782 448.121999 300.621535 448.121999zM317.14867 522.576157c-4.41357 4.415729-10.284654 6.847079-16.527134 6.847079-6.24464 0-12.113565-2.43135-16.529294-6.849238-9.114324-9.114324-9.114324-23.942104 0-33.056428 4.41357-4.415729 10.284654-6.847079 16.529294-6.847079s12.113565 2.43135 16.527134 6.84492C326.262994 498.631893 326.262994 513.461833 317.14867 522.576157zM421.936402 563.971727c15.471246 0 30.01832-6.026552 40.957236-16.965468 22.581757-22.583917 22.583917-59.332715 0-81.918791-10.941075-10.938916-25.48599-16.963309-40.957236-16.963309-15.473405 0-30.01832 6.024393-40.959395 16.965468-22.581757 22.583917-22.581757 59.332715 0 81.914472C391.915923 557.945175 406.462997 563.971727 421.936402 563.971727zM445.060139 502.883517c0.947924 6.991751-1.235109 14.328987-6.596603 19.690481-4.41357 4.415729-10.284654 6.847079-16.527134 6.847079-6.24464 0-12.113565-2.43135-16.529294-6.849238-9.112165-9.112165-9.112165-23.942104 0-33.056428 4.415729-4.415729 10.284654-6.847079 16.529294-6.847079 6.24464 0 12.113565 2.43135 16.527134 6.84492 3.748511 3.748511 5.929385 8.468699 6.594443 13.35731M1024 587.434471l-39.674623-57.069789c-5.495369-7.902967-9.924054-16.475312-13.491186-25.414734-11.774558-29.519526-33.775469-54.787429-62.090116-70.742354-33.756035-19.016785-72.830378-23.542637-110.030466-12.744075l-105.608259 30.638034c-22.722111 6.587965-47.3703 5.46298-69.414396-3.165505l-42.365087-16.574639c-0.475042-0.485838-0.919854-0.99111-1.401373-1.47047-21.750434-21.748275-48.75008-36.800621-78.459623-43.85715-3.472123-5.255689-7.317802-10.332158-11.459303-15.242362 47.620776-18.189781 80.575718-64.076654 80.575718-117.514533l0-5.927225 75.965654 0c45.312505 0 82.046188-36.733683 82.046188-82.046188L728.593127 90.525684l-34.548491 0 0 75.775637c0 26.233101-21.264596 47.497697-47.497697 47.497697l-75.965654 0L570.581285 127.263685l-34.548491 0 0 127.00889c0 4.396295-0.308777 8.723494-0.904739 12.957843l-39.765313 0c-15.456131 0-27.984278-12.528147-27.984278-27.984278L467.378465 184.10459l-34.548491 0L432.829974 239.2483c0 34.535535 27.997233 62.532769 62.532769 62.532769l27.457413 0c-13.335718 22.000911-35.75121 37.901854-62.485265 42.462255-27.753235-20.055399-60.980246-30.912262-95.891496-30.912262-34.937162 0-68.190084 10.871978-95.954115 30.955448-26.552675-4.523693-49.713119-20.800351-63.251809-43.606674l25.300292 0c34.535535 0 62.532769-27.997233 62.532769-62.532769L293.070531 185.203664l-34.548491 0 0 52.947722c0 15.456131-12.528147 27.984278-27.984278 27.984278L193.339834 266.135664c-0.507431-3.921254-0.7795-7.881375-0.7795-11.85877l0-127.00889-34.548491 0 0 86.533174-75.963495 0C55.813087 213.799018 34.548491 192.532263 34.548491 166.301321L34.548491 90.525684 0 90.525684l0 75.775637c0 45.312505 36.733683 82.046188 82.046188 82.046188l75.963495 0 0 5.927225c0 11.439869 1.541726 22.795526 4.581994 33.751716 10.766174 38.776363 39.730765 69.658395 76.293865 83.762817-54.342617 64.443732-51.218138 161.162233 9.459809 221.840179l73.471685 73.469525c11.385887 11.388046 26.526763 17.660757 42.628519 17.660757 0.716881 0 1.431603-0.028071 2.144166-0.051823l78.042882 78.042882 0 170.725687 65.059127 0 29.366217 0 65.059127 0 0-212.462423 109.114931-7.855463c8.213904 49.536058 51.334739 87.433594 103.163954 87.433594 3.396549 0 6.793097-0.164105 10.170212-0.490157l0 133.37229 59.056327 0 18.094772 0 76.330572 0L980.047842 696.07652l0.496635-110.626428 15.089053 21.70293L1024 587.434471zM272.773292 569.195027c-24.486243-24.486243-37.970951-57.041718-37.970951-91.670102 0-34.630544 13.484708-67.186019 37.970951-91.672262 24.486243-24.488402 57.041718-37.97311 91.672262-37.97311 34.628384 0 67.183859 13.484708 91.672262 37.97311 24.486243 24.486243 37.970951 57.041718 37.970951 91.672262 0 34.628384-13.486867 67.183859-37.970951 91.670102l-73.471685 73.471685c-4.860541 4.8627-11.325427 7.540208-18.200577 7.540208-6.87515 0-13.337877-2.677508-18.198418-7.540208L272.773292 569.195027zM407.074073 667.098973l73.471685-73.471685c43.94784-43.94784 57.721891-106.815297 41.328632-162.626225 12.329493 6.210091 23.674353 14.372172 33.624319 24.319978 24.671941 24.661145 38.258135 57.458459 38.258135 92.350276s-13.588353 67.695609-38.260295 92.365391l-92.358913 92.358913-60.932742-60.934901C403.891294 670.102532 405.521551 668.653655 407.074073 667.098973zM479.181093 898.927985l0-133.715616 25.328362-25.328362 0 159.043978L479.181093 898.927985zM747.905734 710.662461l23.728335-1.707991c2.515562 20.264849 10.869819 38.735336 23.298639 53.712107C771.325292 755.048634 753.159264 735.224278 747.905734 710.662461zM861.114661 898.927985l0-99.320434c4.689958 0.645625 9.474924 0.986791 14.337624 0.986791 3.398708 0 6.799575-0.164105 10.170212-0.490157l0 98.823799L861.114661 898.927985zM945.499351 695.998785l0 202.92704-25.328362 0 0-144.220517-22.877579 7.846826c-6.566373 2.25213-14.322509 3.491557-21.841124 3.491557-38.636009 0-70.068658-31.424012-70.068658-70.044906l0-24.112687-235.815044 16.974106 0 210.065622-25.328362 0 0-198.772584 35.686432-35.686432c31.199447-31.199447 48.380843-72.677069 48.380843-116.797652 0-22.773933-4.612224-44.828826-13.333558-65.14118 28.087923 10.051452 59.073601 11.066314 87.757486 2.750924l105.612578-30.640193c28.211002-8.187992 57.84497-4.754736 83.443243 9.6671 24.989355 14.080669 43.474957 37.647059 50.719344 64.655342l0.274229 1.006225c1.973583 7.622261 3.079134 15.52091 3.290744 23.635486 0.036708 1.006225 0.053982 2.027565 0.053982 2.956055L945.499351 695.998785z" fill="#eb4f38"></path></g></g></svg>